<svg xmlns="http://www.w3.org/2000/svg" width="3000" height="3001" fill="none" viewBox="0 0 3000 3001" id="online-shopping-app"><g clip-path="url(#clip0_101_35538)"><path fill="#FAC22F" d="M450.984 598.341C450.984 562.517 480.025 533.476 515.849 533.476H976.43V1216.56H515.849C480.025 1216.56 450.984 1187.52 450.984 1151.69V598.341Z"></path><path fill="#E9B11D" fill-rule="evenodd" d="M553.524 691.11H625.716L631.137 728.642L631.137 728.642L666.814 999.783C667.875 1007.85 674.753 1013.88 682.891 1013.88H976.431V728.642H702.448L693.065 683.603L686.371 651.474C684.805 643.954 678.177 638.565 670.496 638.565H553.524C544.568 638.565 537.308 645.825 537.308 654.781V674.894C537.308 683.85 544.568 691.11 553.524 691.11ZM739.98 1141.49C766.927 1141.49 788.771 1119.65 788.771 1092.7C788.771 1065.75 766.927 1043.91 739.98 1043.91C713.033 1043.91 691.189 1065.75 691.189 1092.7C691.189 1119.65 713.033 1141.49 739.98 1141.49Z" clip-rule="evenodd"></path><path fill="#53B3CC" d="M2567.78 2312.49C2540.76 2306.48 2521.49 2325 2515.24 2335.01L2211.23 2792.89H2413.9C2412.65 2779.13 2428.16 2740.35 2500.22 2695.31C2590.3 2639.01 2590.3 2608.99 2582.8 2556.44C2575.29 2503.9 2567.78 2455.11 2590.3 2410.07C2612.82 2365.03 2601.56 2319.99 2567.78 2312.49Z"></path><path fill="#FAC22F" d="M2282.54 2297.47C2255.52 2312.49 2236.25 2338.76 2229.99 2350.02L2199.97 2665.29L2109.89 2789.14H2263.77C2436.42 2759.12 2413.9 2676.55 2440.17 2593.98C2466.45 2511.41 2560.28 2541.43 2526.5 2391.3C2492.72 2241.18 2545.26 2196.14 2560.28 2162.36C2575.29 2128.58 2657.86 2068.53 2627.83 1993.47C2597.81 1918.4 2534 1952.18 2507.73 1974.7C2481.46 1997.22 2485.21 2038.5 2406.39 2061.02C2327.58 2083.54 2327.58 2166.11 2327.58 2188.63C2327.58 2211.15 2316.32 2278.71 2282.54 2297.47Z"></path><path fill="#E9B11D" fill-rule="evenodd" d="M2207.19 2783.16C2274.9 2546.17 2410.33 2222.49 2549.87 2022.6L2563.17 2031.89C2424.98 2229.83 2290.18 2551.7 2222.78 2787.62L2207.19 2783.16Z" clip-rule="evenodd"></path><path fill="#F15846" fill-rule="evenodd" d="M2271.98 53.6239C2279.69 40.8376 2296.31 36.721 2309.09 44.4293L2384.95 90.1571C2397.73 97.8654 2401.85 114.479 2394.14 127.266V127.266C2387.83 137.74 2389.44 151.062 2397.23 160.496C2419.04 186.934 2435.43 216.981 2445.97 248.869C2449.82 260.495 2460.25 268.961 2472.49 269.193V269.193C2487.45 269.476 2499.34 281.827 2499.06 296.781L2497.38 385.273C2497.1 400.208 2484.76 412.087 2469.83 411.804V411.804C2457.6 411.573 2446.88 419.622 2442.59 431.069C2436.75 446.661 2429.4 461.94 2420.49 476.715C2411.58 491.49 2401.5 505.125 2390.44 517.571C2382.32 526.708 2380.21 539.952 2386.12 550.652V550.652C2393.35 563.728 2388.6 580.184 2375.52 587.407L2298.05 630.203C2284.96 637.435 2268.48 632.684 2261.25 619.593V619.593C2255.33 608.874 2242.97 603.602 2230.9 605.631C2197.78 611.196 2163.55 610.726 2129.99 603.782C2118.01 601.305 2105.48 606.094 2099.16 616.568V616.568C2091.45 629.354 2074.84 633.471 2062.05 625.763L1986.2 580.035C1973.41 572.327 1969.3 555.712 1977.01 542.926V542.926C1983.32 532.452 1981.7 519.13 1973.92 509.695C1952.11 483.258 1935.72 453.212 1925.17 421.323C1921.33 409.697 1910.9 401.23 1898.65 400.999V400.999C1883.7 400.716 1871.81 388.364 1872.09 373.409L1873.76 284.92C1874.05 269.984 1886.38 258.105 1901.32 258.387V258.387C1913.54 258.619 1924.27 250.57 1928.56 239.122C1934.4 223.531 1941.75 208.252 1950.66 193.477C1959.57 178.702 1969.64 165.068 1980.7 152.622C1988.83 143.484 1990.93 130.24 1985.02 119.54V119.54C1977.8 106.464 1982.55 90.0074 1995.62 82.7841L2073.09 39.9889C2086.18 32.7569 2102.66 37.5074 2109.89 50.5994V50.5994C2115.81 61.3178 2128.17 66.5901 2140.25 64.5612C2173.37 58.9961 2207.59 59.4664 2241.16 66.4097C2253.13 68.8874 2265.67 64.0979 2271.98 53.6239V53.6239ZM2318.42 415.185C2274.19 488.555 2178.85 512.177 2105.48 467.946C2032.11 423.714 2008.49 328.378 2052.72 255.007C2096.95 181.637 2192.29 158.015 2265.66 202.247C2339.03 246.478 2362.65 341.814 2318.42 415.185Z" clip-rule="evenodd"></path><path fill="#E5E5E5" d="M976.431 421.798C976.431 359.106 1027.25 308.285 1089.94 308.285H2116.48C2179.17 308.285 2230 359.106 2230 421.798V2679.38C2230 2742.07 2179.17 2792.89 2116.48 2792.89H1089.94C1027.25 2792.89 976.431 2742.07 976.431 2679.38V421.798Z"></path><path fill="#3E3D3D" fill-rule="evenodd" d="M968.323 421.798C968.323 354.628 1022.77 300.177 1089.94 300.177H2116.48C2183.65 300.177 2238.1 354.629 2238.1 421.798V2679.38C2238.1 2746.55 2183.65 2801 2116.48 2801H1089.94C1022.77 2801 968.323 2746.55 968.323 2679.38V421.798ZM1089.94 316.393C1031.73 316.393 984.539 363.584 984.539 421.798V2679.38C984.539 2737.6 1031.73 2784.79 1089.94 2784.79H2116.48C2174.7 2784.79 2221.89 2737.6 2221.89 2679.38V421.798C2221.89 363.584 2174.7 316.393 2116.48 316.393H1089.94Z" clip-rule="evenodd"></path><path fill="#fff" d="M1021.47 434.404C1021.47 389.624 1057.77 353.323 1102.55 353.323H2103.88C2148.66 353.323 2184.96 389.624 2184.96 434.404V2606.72C2184.96 2651.5 2148.66 2687.81 2103.88 2687.81H1102.55C1057.77 2687.81 1021.47 2651.5 1021.47 2606.72V434.404Z"></path><path fill="#53B3CC" d="M1141.57 800.411C1141.57 769.065 1166.98 743.654 1198.33 743.654H1366.76V1764.52H1198.33C1166.98 1764.52 1141.57 1739.11 1141.57 1707.76V800.411Z"></path><path fill="#3E3D3D" fill-rule="evenodd" d="M0 2946.78C0 2942.3 3.63012 2938.67 8.10811 2938.67H2991.89C2996.37 2938.67 3000 2942.3 3000 2946.78 3000 2951.25 2996.37 2954.88 2991.89 2954.88H8.10811C3.63012 2954.88 0 2951.25 0 2946.78zM810.689 2792.89C810.689 2788.42 814.319 2784.79 818.797 2784.79L2597.81 2784.79C2602.29 2784.79 2605.92 2788.42 2605.92 2792.89 2605.92 2797.37 2602.29 2801 2597.81 2801L818.797 2801C814.319 2801 810.689 2797.37 810.689 2792.89z" clip-rule="evenodd"></path><path fill="#3E3D3D" d="M976.431 2781.64V2946.78H432.219L450.985 2781.64H976.431Z"></path><path fill="#EFCB96" d="M623.63 1809.56H758.745V1944.67H623.63V1809.56Z"></path><path fill="#EFCB96" d="M683.682 1843.34C872.843 1843.34 862.584 1668.19 833.809 1580.62L698.695 1610.64C614.874 1688.21 494.521 1843.34 683.682 1843.34Z"></path><path fill="#3E3D3D" d="M634.889 1850.84C709.953 1850.84 709.953 1798.3 709.953 1798.3C709.953 1798.3 712.205 1777.28 706.2 1768.27C698.694 1757.02 672.421 1760.77 672.421 1726.99C672.421 1704.47 679.928 1689.46 706.2 1689.46C732.472 1689.46 725.526 1731.54 743.732 1726.99C758.745 1723.24 758.745 1711.98 773.758 1670.69C785.768 1637.66 803.783 1624.4 811.289 1621.9C886.353 1606.89 867.587 1513.06 856.328 1490.54C845.068 1468.02 803.783 1464.27 773.758 1498.05C743.732 1531.82 728.719 1535.58 653.655 1543.08C593.604 1549.09 548.566 1599.38 548.566 1670.69V1715.73C548.566 1768.27 552.319 1850.84 634.889 1850.84Z"></path><path fill="#F1F1F1" d="M1434.32 714.088C1434.32 682.742 1459.73 657.331 1491.08 657.331H2458.48C2489.83 657.331 2515.24 682.742 2515.24 714.088V1914.19C2515.24 1945.54 2489.83 1970.95 2458.48 1970.95H1491.08C1459.73 1970.95 1434.32 1945.54 1434.32 1914.19V714.088Z"></path><path fill="#fff" d="M1366.76 650.283C1366.76 618.938 1392.17 593.527 1423.52 593.527H2390.92C2422.27 593.527 2447.68 618.938 2447.68 650.283V1850.39C2447.68 1881.73 2422.27 1907.14 2390.92 1907.14H1423.52C1392.17 1907.14 1366.76 1881.73 1366.76 1850.39V650.283Z"></path><path fill="#3E3D3D" fill-rule="evenodd" d="M1358.65 650.283C1358.65 614.46 1387.69 585.419 1423.52 585.419H2390.92C2426.75 585.419 2455.79 614.46 2455.79 650.283V1850.39C2455.79 1886.21 2426.75 1915.25 2390.92 1915.25H1423.52C1387.69 1915.25 1358.65 1886.21 1358.65 1850.39V650.283zM1423.52 601.635C1396.65 601.635 1374.87 623.416 1374.87 650.283V1850.39C1374.87 1877.25 1396.65 1899.03 1423.52 1899.03H2390.92C2417.79 1899.03 2439.57 1877.25 2439.57 1850.39V650.283C2439.57 623.416 2417.79 601.635 2390.92 601.635H1423.52zM2004.8 2245.53H1727.07V2229.31H2004.8V2245.53zM2004.8 2350.62H1727.07V2334.4H2004.8V2350.62zM2004.8 2459.46H1727.07V2443.25H2004.8V2459.46zM2004.8 2579.56H1186.61V2563.35H2004.8V2579.56z" clip-rule="evenodd"></path><path fill="#EFCB96" d="M1220.62 1937.58L1216.63 1945.6L1288.31 1989.71C1290.96 1981.69 1301.85 1963.25 1324.15 1953.62C1352.02 1941.59 1367.95 1901.49 1383.87 1877.43C1396.62 1858.18 1383.87 1842.67 1375.91 1837.32C1375.91 1824.49 1362.64 1815.94 1356 1813.26C1356 1794.01 1337.42 1791.87 1328.13 1793.21L1365.53 1736.7C1371.37 1727.89 1369.34 1716.06 1360.91 1709.69C1351.75 1702.78 1338.67 1704.96 1332.25 1714.48L1268.4 1809.25L1251.1 1807.07C1242.84 1806.03 1235.12 1811.42 1233.37 1819.56C1229.01 1839.8 1223.11 1869.38 1220.62 1889.46C1217.43 1915.12 1219.29 1932.23 1220.62 1937.58Z"></path><path fill="#FAC22F" d="M1629.48 784.94C1629.48 832.615 1590.84 871.263 1543.16 871.263C1495.49 871.263 1456.84 832.615 1456.84 784.94C1456.84 737.264 1495.49 698.616 1543.16 698.616C1590.84 698.616 1629.48 737.264 1629.48 784.94Z"></path><path fill="#46A4BC" d="M2046.09 867.51C1947 855.499 1852.17 862.505 1817.14 867.51L1798.38 961.339L1847.17 1010.13L2072.36 946.326L2046.09 867.51Z"></path><path fill="#53B3CC" d="M1646.92 939.182L1817.15 867.509C1824.65 897.535 1859.18 957.586 1937.25 957.586C2015.31 957.586 2042.34 897.535 2046.09 867.509L2260.63 940.032C2292.87 950.929 2317.08 977.878 2324.46 1011.1L2380.12 1261.59L2230 1284.11V1702.06C2230 1719.98 2215.48 1734.5 2197.56 1734.5H1695.7C1677.78 1734.5 1663.26 1719.98 1663.26 1702.06V1284.11L1520.64 1261.59L1590.78 1003.35C1598.63 974.466 1619.33 950.798 1646.92 939.182Z"></path><path fill="#E5E5E5" d="M1351.75 353.323H1877.2L1859.5 410.84C1852.17 434.655 1830.17 450.906 1805.25 450.906H1423.69C1398.78 450.906 1376.77 434.655 1369.45 410.84L1351.75 353.323Z"></path><path fill="#F15846" fill-rule="evenodd" d="M2582.79 1190.28H2639.09L2710.4 1299.13L2639.09 1407.97H2610.94H2582.79L2654.11 1299.13L2582.79 1190.28Z" clip-rule="evenodd"></path><path fill="#46A4BC" fill-rule="evenodd" d="M1937.25 995.419C1839.16 995.419 1796.18 933.976 1786.98 902.423L1794.76 900.153C1803.08 928.651 1843.17 987.311 1937.25 987.311C2031.19 987.311 2063.66 928.856 2068.36 900.622L2076.36 901.955C2071.06 933.772 2035.47 995.419 1937.25 995.419ZM1667.32 1179.02V1284.11H1659.21V1179.02H1667.32ZM2234.05 1179.02V1284.11H2225.94V1179.02H2234.05Z" clip-rule="evenodd"></path><path fill="#53B3CC" d="M976.43 2781.63C1021.47 2772.63 976.43 2530.17 976.43 2308.73L1033.66 2341.44C1073.97 2364.47 1125.35 2349.02 1146.27 2307.58L1302.96 1997.22L1209.13 1937.17L1096.27 2104.75C1090.57 2113.21 1078.59 2114.39 1071.35 2107.2C1026.52 2062.68 951.452 1989.36 916.379 1959.69C877.346 1926.66 803.784 1912.15 773.758 1910.9C762.499 1919.65 730.972 1937.17 694.941 1937.17C658.911 1937.17 622.38 1919.65 608.618 1910.9L506.592 1946.49C469.103 1959.56 439.666 1989.09 426.702 2026.62L375.92 2173.62C345.894 2271.2 300.856 2373.29 345.894 2421.33C390.932 2469.37 432.217 2453.86 447.23 2440.09C447.23 2560.2 443.477 2642.77 435.971 2732.84C428.465 2822.92 492.269 2774.13 676.175 2789.14C823.3 2801.15 913.877 2786.64 976.43 2781.63Z"></path><path fill="#EFCB96" fill-rule="evenodd" d="M713.708 1835.53C731.136 1835.53 750.197 1830.65 757.464 1828.23L760.028 1835.92C752.282 1838.51 732.31 1843.64 713.708 1843.64V1835.53Z" clip-rule="evenodd"></path><path fill="#46A4BC" fill-rule="evenodd" d="M787.029 1940.69C701.313 1989.67 625.996 1961.22 598.654 1940.39L603.568 1933.94C628.771 1953.15 700.58 1980.75 783.006 1933.65L787.029 1940.69ZM451.285 2436.34H443.177V2184.88H451.285V2436.34ZM929.946 2271.62L978.738 2305.4L974.123 2312.07L925.331 2278.29L929.946 2271.62ZM606.805 2605.36C714.013 2551.76 810.625 2438.8 845.501 2388.98L852.143 2393.63C816.959 2443.89 719.406 2558.13 610.431 2612.61L606.805 2605.36ZM797.882 2594.29C845.243 2564.69 869.188 2527.8 875.105 2513.6L882.589 2516.72C875.995 2532.54 850.899 2570.72 802.179 2601.17L797.882 2594.29Z" clip-rule="evenodd"></path><path fill="#F15846" d="M1186.61 2246.13C1186.61 2237.18 1193.87 2229.92 1202.82 2229.92H1560.72C1569.68 2229.92 1576.94 2237.18 1576.94 2246.13V2446.4C1576.94 2455.35 1569.68 2462.61 1560.72 2462.61H1202.82C1193.87 2462.61 1186.61 2455.35 1186.61 2446.4V2246.13Z"></path></g><defs><clipPath id="clip0_101_35538"><rect width="3000" height="3000" fill="#fff" transform="translate(0 .81)"></rect></clipPath></defs></svg>